<svg width="38" height="37" viewBox="0 0 38 37" fill="none" xmlns="http://www.w3.org/2000/svg">
<path d="M38 18.5C38 27.4401 29.4928 34.6875 19 34.6875C17.1182 34.69 15.2441 34.4521 13.4259 33.9799C12.0389 34.6644 8.854 35.9779 3.496 36.8335C3.021 36.9075 2.66 36.4265 2.84763 35.9964C3.68837 34.0631 4.44837 31.487 4.67637 29.1375C1.767 26.2931 0 22.57 0 18.5C0 9.55988 8.50725 2.3125 19 2.3125C29.4928 2.3125 38 9.55988 38 18.5ZM11.875 18.5C11.875 17.8867 11.6248 17.2985 11.1794 16.8648C10.734 16.4311 10.1299 16.1875 9.5 16.1875C8.87011 16.1875 8.26602 16.4311 7.82062 16.8648C7.37522 17.2985 7.125 17.8867 7.125 18.5C7.125 19.1133 7.37522 19.7015 7.82062 20.1352C8.26602 20.5689 8.87011 20.8125 9.5 20.8125C10.1299 20.8125 10.734 20.5689 11.1794 20.1352C11.6248 19.7015 11.875 19.1133 11.875 18.5ZM21.375 18.5C21.375 17.8867 21.1248 17.2985 20.6794 16.8648C20.234 16.4311 19.6299 16.1875 19 16.1875C18.3701 16.1875 17.766 16.4311 17.3206 16.8648C16.8752 17.2985 16.625 17.8867 16.625 18.5C16.625 19.1133 16.8752 19.7015 17.3206 20.1352C17.766 20.5689 18.3701 20.8125 19 20.8125C19.6299 20.8125 20.234 20.5689 20.6794 20.1352C21.1248 19.7015 21.375 19.1133 21.375 18.5ZM28.5 20.8125C29.1299 20.8125 29.734 20.5689 30.1794 20.1352C30.6248 19.7015 30.875 19.1133 30.875 18.5C30.875 17.8867 30.6248 17.2985 30.1794 16.8648C29.734 16.4311 29.1299 16.1875 28.5 16.1875C27.8701 16.1875 27.266 16.4311 26.8206 16.8648C26.3752 17.2985 26.125 17.8867 26.125 18.5C26.125 19.1133 26.3752 19.7015 26.8206 20.1352C27.266 20.5689 27.8701 20.8125 28.5 20.8125Z" fill="#7269EF"/>
</svg>