<svg width="21" height="20" viewBox="0 0 21 20" fill="none" xmlns="http://www.w3.org/2000/svg">
<path d="M10.1272 19C8.92861 19 7.74174 18.7672 6.63438 18.3149C5.52701 17.8626 4.52084 17.1997 3.6733 16.364C2.82576 15.5282 2.15345 14.5361 1.69477 13.4442C1.23608 12.3522 1 11.1819 1 10C1 8.8181 1.23608 7.64778 1.69477 6.55585C2.15345 5.46392 2.82576 4.47177 3.6733 3.63604C4.52084 2.80031 5.52701 2.13738 6.63438 1.68508C7.74174 1.23279 8.92861 1 10.1272 1C12.5479 1 14.8694 1.94821 16.5811 3.63604C18.2928 5.32387 19.2544 7.61305 19.2544 10C19.2544 12.3869 18.2928 14.6761 16.5811 16.364C14.8694 18.0518 12.5479 19 10.1272 19Z" stroke="#7269EF" stroke-width="2" stroke-linecap="round" stroke-linejoin="round"/>
<path d="M8.2968 8.75C7.78973 7.75 5.76146 7.75 5.25439 8.75M15.3957 8.75C14.8887 7.75 12.8604 7.75 12.3533 8.75M12.8604 13.75C12.5299 14.0826 12.1354 14.3468 11.7001 14.5272C11.2648 14.7076 10.7973 14.8005 10.3251 14.8005C9.85285 14.8005 9.38537 14.7076 8.95003 14.5272C8.51468 14.3468 8.12021 14.0826 7.78973 13.75" stroke="#7269EF" stroke-width="2" stroke-linecap="round" stroke-linejoin="round"/>
</svg>