<svg width="41" height="39" viewBox="0 0 41 39" fill="none" xmlns="http://www.w3.org/2000/svg">
<path d="M20.4829 3.25C11.0529 3.25 3.41663 10.53 3.41663 19.5C3.41663 28.47 11.0529 35.75 20.4829 35.75C29.93 35.75 37.5833 28.47 37.5833 19.5C37.5833 10.53 29.93 3.25 20.4829 3.25ZM32.3216 13H27.282C26.7474 10.9874 25.9556 9.04458 24.9245 7.215C28.0407 8.2355 30.6665 10.2891 32.3216 13ZM20.5 6.565C21.9179 8.515 23.0283 10.6763 23.7629 13H17.237C17.9716 10.6763 19.082 8.515 20.5 6.565ZM7.27746 22.75C7.00413 21.71 6.83329 20.6213 6.83329 19.5C6.83329 18.3788 7.00413 17.29 7.27746 16.25H13.0516C12.915 17.3225 12.8125 18.395 12.8125 19.5C12.8125 20.605 12.915 21.6775 13.0516 22.75H7.27746ZM8.67829 26H13.7179C14.2645 28.0313 15.0504 29.9813 16.0754 31.785C12.9559 30.7701 10.3283 28.7151 8.67829 26ZM13.7179 13H8.67829C10.3283 10.2849 12.9559 8.22992 16.0754 7.215C15.0443 9.04458 14.2525 10.9874 13.7179 13ZM20.5 32.435C19.082 30.485 17.9716 28.3238 17.237 26H23.7629C23.0283 28.3238 21.9179 30.485 20.5 32.435ZM24.4975 22.75H16.5025C16.3487 21.6775 16.2291 20.605 16.2291 19.5C16.2291 18.395 16.3487 17.3063 16.5025 16.25H24.4975C24.6512 17.3063 24.7708 18.395 24.7708 19.5C24.7708 20.605 24.6512 21.6775 24.4975 22.75ZM24.9245 31.785C25.9495 29.9813 26.7354 28.0313 27.282 26H32.3216C30.6665 28.711 28.0407 30.7645 24.9245 31.785ZM27.9483 22.75C28.085 21.6775 28.1875 20.605 28.1875 19.5C28.1875 18.395 28.085 17.3225 27.9483 16.25H33.7225C33.9958 17.29 34.1666 18.3788 34.1666 19.5C34.1666 20.6213 33.9958 21.71 33.7225 22.75H27.9483Z" fill="#878A92"/>
</svg>