<svg width="47" height="36" viewBox="0 0 47 36" fill="none" xmlns="http://www.w3.org/2000/svg">
<path d="M39.1666 3H7.83329C5.67913 3 3.93621 4.35 3.93621 6L3.91663 33L11.75 27H39.1666C41.3208 27 43.0833 25.65 43.0833 24V6C43.0833 4.35 41.3208 3 39.1666 3ZM33.2916 21H13.7083C12.6312 21 11.75 20.325 11.75 19.5C11.75 18.675 12.6312 18 13.7083 18H33.2916C34.3687 18 35.25 18.675 35.25 19.5C35.25 20.325 34.3687 21 33.2916 21ZM33.2916 16.5H13.7083C12.6312 16.5 11.75 15.825 11.75 15C11.75 14.175 12.6312 13.5 13.7083 13.5H33.2916C34.3687 13.5 35.25 14.175 35.25 15C35.25 15.825 34.3687 16.5 33.2916 16.5ZM33.2916 12H13.7083C12.6312 12 11.75 11.325 11.75 10.5C11.75 9.675 12.6312 9 13.7083 9H33.2916C34.3687 9 35.25 9.675 35.25 10.5C35.25 11.325 34.3687 12 33.2916 12Z" fill="#878A92"/>
</svg>