<svg width="57" height="57" viewBox="0 0 57 57" fill="none" xmlns="http://www.w3.org/2000/svg">
<g clip-path="url(#clip0_62_97)">
<path d="M42.7392 37.4618C43.6727 35.9989 44.3745 34.4005 44.8201 32.7227C42.0412 35.0587 38.5858 36.4461 34.9567 36.6832C31.3276 36.9204 27.714 35.9948 24.6415 34.0411C21.5691 32.0875 19.198 29.2077 17.8734 25.8207C16.5487 22.4336 16.3394 18.716 17.276 15.2087C15.3941 16.7906 13.878 18.7612 12.8317 20.9853C11.7854 23.2095 11.2336 25.6346 11.214 28.0946C11.1945 30.5546 11.7077 32.9912 12.7186 35.2377C13.7294 37.4841 15.214 39.4872 17.0705 41.1096C18.927 42.7321 21.1117 43.9357 23.4747 44.6378C25.8378 45.34 28.3234 45.5241 30.7614 45.1777C33.1993 44.8312 35.5318 43.9623 37.5992 42.6306C39.6666 41.2988 41.42 39.5356 42.7392 37.4618Z" fill="#8D94A1"/>
</g>
<defs>
<clipPath id="clip0_62_97">
<rect width="40.9251" height="41.0575" fill="white" transform="translate(56.606 22.0303) rotate(122.451)"/>
</clipPath>
</defs>
</svg>