<svg width="161" height="54" viewBox="0 0 161 54" fill="none" xmlns="http://www.w3.org/2000/svg">
<path d="M59 26C59 35.1817 45.7914 42.625 29.5 42.625C26.5782 42.6275 23.6685 42.3832 20.8454 41.8983C18.6919 42.6012 13.747 43.9503 5.428 44.829C4.6905 44.905 4.13 44.411 4.42131 43.9692C5.72669 41.9837 6.90669 39.338 7.26069 36.925C2.7435 34.0038 0 30.18 0 26C0 16.8183 13.2086 9.375 29.5 9.375C45.7914 9.375 59 16.8183 59 26ZM18.4375 26C18.4375 25.3701 18.049 24.766 17.3575 24.3206C16.6659 23.8752 15.728 23.625 14.75 23.625C13.772 23.625 12.8341 23.8752 12.1425 24.3206C11.451 24.766 11.0625 25.3701 11.0625 26C11.0625 26.6299 11.451 27.234 12.1425 27.6794C12.8341 28.1248 13.772 28.375 14.75 28.375C15.728 28.375 16.6659 28.1248 17.3575 27.6794C18.049 27.234 18.4375 26.6299 18.4375 26ZM33.1875 26C33.1875 25.3701 32.799 24.766 32.1075 24.3206C31.4159 23.8752 30.478 23.625 29.5 23.625C28.522 23.625 27.5841 23.8752 26.8925 24.3206C26.201 24.766 25.8125 25.3701 25.8125 26C25.8125 26.6299 26.201 27.234 26.8925 27.6794C27.5841 28.1248 28.522 28.375 29.5 28.375C30.478 28.375 31.4159 28.1248 32.1075 27.6794C32.799 27.234 33.1875 26.6299 33.1875 26ZM44.25 28.375C45.228 28.375 46.1659 28.1248 46.8575 27.6794C47.549 27.234 47.9375 26.6299 47.9375 26C47.9375 25.3701 47.549 24.766 46.8575 24.3206C46.1659 23.8752 45.228 23.625 44.25 23.625C43.272 23.625 42.3341 23.8752 41.6425 24.3206C40.951 24.766 40.5625 25.3701 40.5625 26C40.5625 26.6299 40.951 27.234 41.6425 27.6794C42.3341 28.1248 43.272 28.375 44.25 28.375Z" fill="#7269EF"/>
<path d="M90.55 27.364C90.55 28.7013 89.8587 30.0047 88.476 31.274C87.0933 32.5207 85.3027 33.5293 83.104 34.3C80.9053 35.048 78.6613 35.422 76.372 35.422C75.0347 35.422 73.8333 35.048 72.768 34.3C71.7253 33.552 71.204 32.8607 71.204 32.226C71.204 31.5687 71.3967 31.24 71.782 31.24C71.8727 31.24 72.3147 31.4893 73.108 31.988C73.924 32.464 74.774 32.7133 75.658 32.736C75.3407 32.5773 75.0347 32.2827 74.74 31.852C74.468 31.4213 74.332 31.0133 74.332 30.628C74.332 30.2427 74.604 29.166 75.148 27.398C76.8253 22.0713 77.6867 17.98 77.732 15.124H77.46C77.052 15.124 76.6327 14.8747 76.202 14.376C75.7713 13.8547 75.556 13.4353 75.556 13.118C75.556 12.7327 76.032 12.404 76.984 12.132C77.9587 11.8373 79.126 11.69 80.486 11.69C83.6593 11.69 86.1073 12.1207 87.83 12.982C89.5527 13.8433 90.414 15.09 90.414 16.722C90.414 18.082 89.836 19.3173 88.68 20.428C87.5467 21.5387 85.8807 22.434 83.682 23.114L83.988 23.148C85.892 23.2613 87.456 23.726 88.68 24.542C89.9267 25.358 90.55 26.2987 90.55 27.364ZM87.354 16.892C87.354 16.144 86.9687 15.566 86.198 15.158C85.45 14.7273 84.532 14.512 83.444 14.512C82.3787 14.512 81.0753 14.648 79.534 14.92C80.1687 15.6 80.486 16.2573 80.486 16.892C80.486 17.504 80.0893 19.374 79.296 22.502C79.84 22.162 80.69 21.7767 81.846 21.346C83.002 20.8927 83.9087 20.496 84.566 20.156C85.246 19.816 85.7333 19.5213 86.028 19.272C86.3453 19 86.64 18.6487 86.912 18.218C87.2067 17.7873 87.354 17.3453 87.354 16.892ZM87.592 27.228C87.592 26.548 86.7987 25.9813 85.212 25.528C83.648 25.052 82.084 24.814 80.52 24.814C79.908 24.814 79.3753 24.4967 78.922 23.862C77.5393 29.3247 76.6327 32.2827 76.202 32.736C77.8113 32.6907 79.5 32.4073 81.268 31.886C83.036 31.342 84.532 30.6393 85.756 29.778C86.98 28.9167 87.592 28.0667 87.592 27.228ZM108.628 11.588C109.218 11.588 109.818 11.962 110.43 12.71C111.065 13.458 111.382 14.0813 111.382 14.58C111.382 15.056 111.292 15.294 111.11 15.294C110.952 15.294 110.634 15.2147 110.158 15.056C109.682 14.8747 109.252 14.784 108.866 14.784C107.982 14.784 106.906 15.2373 105.636 16.144C104.39 17.0507 103.2 18.1727 102.066 19.51C100.956 20.8473 100.004 22.3773 99.2104 24.1C98.4171 25.8 98.0204 27.2733 98.0204 28.52C98.0204 29.7667 98.3378 30.6847 98.9724 31.274C99.6298 31.8407 100.48 32.124 101.522 32.124C102.565 32.124 103.642 31.9767 104.752 31.682C105.863 31.3647 106.77 31.0133 107.472 30.628C109.286 29.6533 110.283 29.166 110.464 29.166C110.85 29.166 111.042 29.4267 111.042 29.948C111.042 30.4467 110.521 31.1267 109.478 31.988C108.436 32.8267 107.144 33.586 105.602 34.266C104.061 34.946 102.678 35.286 101.454 35.286C99.8678 35.286 98.3718 34.606 96.9664 33.246C95.5611 31.8633 94.8584 30.3447 94.8584 28.69C94.8584 26.5593 95.5498 24.1567 96.9324 21.482C98.3378 18.7847 100.128 16.4613 102.304 14.512C104.503 12.5627 106.611 11.588 108.628 11.588ZM118.068 10.432C118.068 9.548 118.34 9.106 118.884 9.106C119.315 9.106 119.768 9.446 120.244 10.126C120.743 10.806 120.992 11.4633 120.992 12.098C120.992 13.5713 120.618 16.0873 119.87 19.646C119.145 23.182 118.193 26.718 117.014 30.254C119.281 26.1513 121.173 23.1933 122.692 21.38C124.233 19.544 125.548 18.626 126.636 18.626C127.225 18.626 127.905 19.136 128.676 20.156C129.469 21.176 129.866 22.196 129.866 23.216C129.866 24.236 129.583 25.766 129.016 27.806C127.611 32.9287 126.285 35.49 125.038 35.49C124.539 35.49 124.29 35.15 124.29 34.47C124.29 33.79 124.562 32.6453 125.106 31.036C126.307 27.5227 126.908 25.154 126.908 23.93C126.908 23.522 126.806 23.182 126.602 22.91C126.398 22.638 126.149 22.502 125.854 22.502C125.559 22.502 125.197 22.6607 124.766 22.978C124.335 23.2953 123.814 23.8507 123.202 24.644C122.431 25.664 121.627 26.8087 120.788 28.078C119.972 29.3473 119.473 30.118 119.292 30.39C119.133 30.6393 118.839 31.104 118.408 31.784C118 32.464 117.694 32.974 117.49 33.314C117.286 33.6313 117.037 33.9827 116.742 34.368C116.221 35.116 115.824 35.49 115.552 35.49C115.28 35.49 114.917 35.2407 114.464 34.742C114.011 34.2207 113.784 33.79 113.784 33.45C113.784 33.0873 113.909 32.4187 114.158 31.444C115.291 27.092 116.005 24.1113 116.3 22.502C117.479 16.6087 118.068 12.5853 118.068 10.432ZM141.328 18.626C142.348 18.626 143.289 19.1473 144.15 20.19C145.012 21.21 145.442 22.1393 145.442 22.978C145.442 23.794 145.159 24.6327 144.592 25.494C144.864 25.834 145 26.1287 145 26.378C145 27.0127 144.853 28.1007 144.558 29.642C144.286 31.1833 144.116 32.192 144.048 32.668C144.003 33.144 143.958 33.5293 143.912 33.824C143.867 34.096 143.81 34.368 143.742 34.64C143.652 35.2067 143.448 35.49 143.13 35.49C142.722 35.49 142.382 35.1387 142.11 34.436C141.861 33.7107 141.714 32.7813 141.668 31.648C139.651 34.2093 137.781 35.49 136.058 35.49C135.016 35.49 133.984 35.048 132.964 34.164C131.967 33.2573 131.468 32.328 131.468 31.376C131.468 30.016 131.967 28.3387 132.964 26.344C133.962 24.3267 135.254 22.536 136.84 20.972C138.427 19.408 139.923 18.626 141.328 18.626ZM142.892 24.61C142.892 22.502 142.473 21.448 141.634 21.448C140.75 21.448 139.719 22.0827 138.54 23.352C137.362 24.5987 136.364 26.0153 135.548 27.602C134.732 29.1887 134.324 30.4467 134.324 31.376C134.324 31.7613 134.483 32.0787 134.8 32.328C135.118 32.5547 135.492 32.668 135.922 32.668C136.988 32.668 138.189 31.954 139.526 30.526C140.864 29.0753 141.793 27.3187 142.314 25.256C142.382 24.916 142.575 24.712 142.892 24.644V24.61ZM152.03 32.09C152.03 32.5207 152.279 32.736 152.778 32.736C153.639 32.736 154.682 32.498 155.906 32.022C157.153 31.5233 157.844 31.274 157.98 31.274C158.388 31.274 158.592 31.4893 158.592 31.92C158.592 32.5773 157.912 33.3367 156.552 34.198C155.215 35.0593 153.991 35.49 152.88 35.49C151.792 35.49 150.885 35.1953 150.16 34.606C149.435 33.994 149.072 33.3707 149.072 32.736C149.072 32.1013 149.208 31.2967 149.48 30.322C149.752 29.3247 150.137 28.0213 150.636 26.412C151.157 24.78 151.565 23.4313 151.86 22.366C150.795 22.6153 150.081 22.74 149.718 22.74C149.355 22.74 148.993 22.5587 148.63 22.196C148.29 21.8107 148.12 21.448 148.12 21.108C148.12 20.564 149.593 20.0427 152.54 19.544C152.948 17.6627 153.152 15.9967 153.152 14.546C153.152 13.866 153.379 13.526 153.832 13.526C154.217 13.526 154.693 13.7753 155.26 14.274C155.827 14.75 156.11 15.294 156.11 15.906C156.11 16.518 155.917 17.5947 155.532 19.136C156.824 19.0227 157.855 18.966 158.626 18.966C159.986 18.966 160.666 19.2607 160.666 19.85C160.666 20.19 160.292 20.4733 159.544 20.7C158.819 20.9267 157.277 21.278 154.92 21.754C154.444 23.5447 153.843 25.596 153.118 27.908C152.393 30.1973 152.03 31.5913 152.03 32.09Z" fill="black"/>
</svg>