<svg width="41" height="39" viewBox="0 0 41 39" fill="none" xmlns="http://www.w3.org/2000/svg">
<g clip-path="url(#clip0_62_88)">
<path d="M22.7098 -2.55668e-07C23.3125 -2.55668e-07 23.8516 0.35685 24.0546 0.89115L25.5019 4.7073C26.0205 4.83015 26.4654 4.953 26.8426 5.0817C27.2546 5.2221 27.7856 5.43465 28.4416 5.7252L31.8118 4.0287C32.0869 3.89007 32.4018 3.84003 32.7093 3.88609C33.0169 3.93214 33.3004 4.07182 33.5174 4.28415L36.4817 7.1994C36.8753 7.58745 36.986 8.1549 36.7646 8.6502L35.184 12.1739C35.4464 12.6321 35.6556 13.0241 35.8155 13.3517C35.9877 13.7085 36.2009 14.1999 36.4551 14.8336L40.1389 16.3351C40.6924 16.5594 41.0348 17.0859 40.9978 17.6495L40.7272 21.6957C40.7088 21.9586 40.6095 22.2105 40.4419 22.4202C40.2743 22.6299 40.0456 22.7882 39.7842 22.8755L36.2952 24.0552C36.1947 24.5135 36.0901 24.9054 35.9795 25.2369C35.8009 25.7489 35.597 26.2525 35.3685 26.7462L37.1213 30.4317C37.245 30.6907 37.2783 30.9805 37.2163 31.2587C37.1544 31.537 37.0004 31.7891 36.7769 31.9781L33.4436 34.8095C33.2241 34.9951 32.9501 35.1126 32.6585 35.146C32.3669 35.1795 32.0714 35.1274 31.8118 34.9967L28.376 33.265C27.8385 33.5358 27.2839 33.7748 26.7155 33.9807L25.2149 34.515L23.8824 38.025C23.7837 38.282 23.6055 38.5047 23.3714 38.6637C23.1373 38.8228 22.858 38.9108 22.5704 38.9162L18.6754 39C18.3801 39.0074 18.0897 38.9275 17.8441 38.7714C17.5985 38.6153 17.4098 38.3907 17.3039 38.1283L15.7336 34.1757C15.1979 34.0015 14.6674 33.813 14.1428 33.6102C13.7138 33.4336 13.2913 33.243 12.8759 33.0389L8.98095 34.6222C8.7243 34.7264 8.44136 34.7573 8.16657 34.7113C7.89178 34.6652 7.63698 34.5442 7.4332 34.3629L4.5509 31.7908C4.33631 31.6002 4.19016 31.3502 4.13314 31.0762C4.07612 30.8022 4.1111 30.5181 4.23315 30.264L5.908 26.793C5.68525 26.3819 5.47874 25.963 5.2889 25.5372C5.0673 25.016 4.8622 24.4886 4.6739 23.9557L1.0044 22.893C0.706125 22.8072 0.445967 22.6302 0.264328 22.3894C0.0826884 22.1485 -0.0102667 21.8574 -0.000101181 21.5612L0.143399 17.8152C0.153613 17.5708 0.233879 17.3337 0.375516 17.1295C0.517153 16.9254 0.714771 16.7619 0.946999 16.6569L4.7969 14.898C4.97525 14.276 5.13105 13.7924 5.2684 13.4394C5.4618 12.968 5.67657 12.5047 5.9121 12.051L4.2434 8.697C4.11676 8.4423 4.07831 8.15595 4.13356 7.87914C4.18881 7.60233 4.33493 7.34933 4.5509 7.1565L7.4291 4.5708C7.63086 4.38979 7.88332 4.26809 8.15609 4.22035C8.42885 4.17261 8.71031 4.20086 8.9666 4.3017L12.8575 5.8305C13.288 5.5575 13.6775 5.33715 14.0301 5.1597C14.4503 4.94715 15.012 4.72485 15.7193 4.485L17.0723 0.89505C17.1723 0.632323 17.3552 0.405368 17.5959 0.245175C17.8365 0.0849824 18.1233 -0.000640004 18.4171 -2.55668e-07H22.7098ZM20.5491 13.6871C17.1317 13.6871 14.3622 16.2903 14.3622 19.5039C14.3622 22.7175 17.1317 25.3227 20.5491 25.3227C23.9644 25.3227 26.7339 22.7175 26.7339 19.5039C26.7339 16.2903 23.9664 13.6871 20.5491 13.6871Z" fill="#878A92"/>
</g>
<defs>
<clipPath id="clip0_62_88">
<rect width="41" height="39" fill="white"/>
</clipPath>
</defs>
</svg>