<svg width="51" height="49" viewBox="0 0 51 49" fill="none" xmlns="http://www.w3.org/2000/svg">
<path d="M34 22.4583C37.5275 22.4583 40.3537 19.7225 40.3537 16.3333C40.3537 12.9442 37.5275 10.2083 34 10.2083C30.4725 10.2083 27.625 12.9442 27.625 16.3333C27.625 19.7225 30.4725 22.4583 34 22.4583ZM17 22.4583C20.5275 22.4583 23.3538 19.7225 23.3538 16.3333C23.3538 12.9442 20.5275 10.2083 17 10.2083C13.4725 10.2083 10.625 12.9442 10.625 16.3333C10.625 19.7225 13.4725 22.4583 17 22.4583ZM17 26.5417C12.0487 26.5417 2.125 28.9304 2.125 33.6875V36.75C2.125 37.8729 3.08125 38.7917 4.25 38.7917H29.75C30.9188 38.7917 31.875 37.8729 31.875 36.75V33.6875C31.875 28.9304 21.9513 26.5417 17 26.5417ZM34 26.5417C33.3838 26.5417 32.6825 26.5825 31.9387 26.6438C31.9812 26.6642 32.0025 26.705 32.0238 26.7254C34.4463 28.42 36.125 30.6863 36.125 33.6875V36.75C36.125 37.4646 35.9762 38.1588 35.7425 38.7917H46.75C47.9188 38.7917 48.875 37.8729 48.875 36.75V33.6875C48.875 28.9304 38.9512 26.5417 34 26.5417Z" fill="#878A92"/>
</svg>