<svg width="59" height="52" viewBox="0 0 59 52" fill="none" xmlns="http://www.w3.org/2000/svg">
<path d="M29.5 8.66667C32.108 8.66667 34.6091 9.57976 36.4533 11.2051C38.2974 12.8304 39.3334 15.0348 39.3334 17.3333C39.3334 19.6319 38.2974 21.8363 36.4533 23.4616C34.6091 25.0869 32.108 26 29.5 26C26.8921 26 24.3909 25.0869 22.5468 23.4616C20.7027 21.8363 19.6667 19.6319 19.6667 17.3333C19.6667 15.0348 20.7027 12.8304 22.5468 11.2051C24.3909 9.57976 26.8921 8.66667 29.5 8.66667ZM29.5 30.3333C40.3659 30.3333 49.1667 34.2117 49.1667 39V43.3333H9.83337V39C9.83337 34.2117 18.6342 30.3333 29.5 30.3333Z" fill="#878A92"/>
</svg>